<svg width="21" height="24" viewBox="0 0 21 24" fill="none" xmlns="http://www.w3.org/2000/svg">
<path d="M6.24375 21.2822C7.22502 22.5295 8.76655 23.3333 10.5 23.3333C12.2335 23.3333 13.775 22.5295 14.7563 21.2822C11.9308 21.665 9.06917 21.665 6.24375 21.2822Z" fill="#173051"/>
<path d="M18.374 8.16667V8.98812C18.374 9.97394 18.6553 10.9377 19.1826 11.758L20.4746 13.768C21.6547 15.604 20.7538 18.0996 18.7012 18.6802C13.3318 20.199 7.6682 20.199 2.29876 18.6802C0.246221 18.0996 -0.654706 15.604 0.525419 13.768L1.81743 11.758C2.34467 10.9377 2.62602 9.97394 2.62602 8.98812V8.16667C2.62602 3.65634 6.15132 0 10.5 0C14.8487 0 18.374 3.65634 18.374 8.16667Z" fill="#173051"/>
</svg>
