<svg width="24" height="24" viewBox="0 0 24 24" fill="none" xmlns="http://www.w3.org/2000/svg">
<path d="M23.3333 7.58333C23.3333 3.39517 19.9382 0 15.75 0C13.32 0 11.1569 1.14602 9.76909 2.92508C15.6883 3.15392 20.4167 8.02477 20.4167 14C20.4167 14.1287 20.4145 14.2569 20.4101 14.3845L20.7978 14.4882C21.9251 14.7899 22.9566 13.7585 22.6549 12.6311L22.5063 12.0757C22.3863 11.6271 22.4584 11.1531 22.6514 10.7307C23.0893 9.77199 23.3333 8.70616 23.3333 7.58333Z" fill="white"/>
<path fill-rule="evenodd" clip-rule="evenodd" d="M18.6667 14C18.6667 19.1547 14.488 23.3333 9.33333 23.3333C7.89191 23.3333 6.52681 23.0066 5.30805 22.4231C4.88916 22.2226 4.41459 22.1521 3.96595 22.2722L2.53557 22.6549C1.40818 22.9566 0.37678 21.9252 0.678429 20.7978L1.06115 19.3674C1.18119 18.9187 1.11078 18.4442 0.910233 18.0253C0.326755 16.8065 0 15.4414 0 14C0 8.84534 4.17868 4.66667 9.33333 4.66667C14.488 4.66667 18.6667 8.84534 18.6667 14ZM5.25 15.1667C5.89433 15.1667 6.41667 14.6443 6.41667 14C6.41667 13.3557 5.89433 12.8333 5.25 12.8333C4.60567 12.8333 4.08333 13.3557 4.08333 14C4.08333 14.6443 4.60567 15.1667 5.25 15.1667ZM9.33333 15.1667C9.97767 15.1667 10.5 14.6443 10.5 14C10.5 13.3557 9.97767 12.8333 9.33333 12.8333C8.689 12.8333 8.16667 13.3557 8.16667 14C8.16667 14.6443 8.689 15.1667 9.33333 15.1667ZM13.4167 15.1667C14.061 15.1667 14.5833 14.6443 14.5833 14C14.5833 13.3557 14.061 12.8333 13.4167 12.8333C12.7723 12.8333 12.25 13.3557 12.25 14C12.25 14.6443 12.7723 15.1667 13.4167 15.1667Z" fill="white"/>
</svg>
