<svg width="24" height="24" viewBox="0 0 24 24" fill="none" xmlns="http://www.w3.org/2000/svg">
<path fill-rule="evenodd" clip-rule="evenodd" d="M0.605734 6.7932C0 7.89982 0 9.23474 0 11.9046V13.6791C0 18.2302 0 20.5057 1.36684 21.9195C2.73367 23.3333 4.93356 23.3333 9.33333 23.3333H14C18.3998 23.3333 20.5997 23.3333 21.9665 21.9195C23.3333 20.5057 23.3333 18.2302 23.3333 13.6791V11.9046C23.3333 9.23474 23.3333 7.89982 22.7276 6.7932C22.1219 5.68658 21.0152 4.99977 18.802 3.62615L16.4686 2.17801C14.129 0.726005 12.9593 0 11.6667 0C10.3741 0 9.20428 0.726005 6.8647 2.17802L4.53137 3.62615C2.3181 4.99977 1.21147 5.68658 0.605734 6.7932ZM8.16667 17.7917C7.68342 17.7917 7.29167 18.1834 7.29167 18.6667C7.29167 19.1499 7.68342 19.5417 8.16667 19.5417H15.1667C15.6499 19.5417 16.0417 19.1499 16.0417 18.6667C16.0417 18.1834 15.6499 17.7917 15.1667 17.7917H8.16667Z" fill="white"/>
</svg>
