<svg width="16" height="16" viewBox="0 0 16 16" fill="none" xmlns="http://www.w3.org/2000/svg">
<path d="M1.33325 7.99996C1.33325 5.4858 1.33325 4.22872 2.1143 3.44767C2.89535 2.66663 4.15243 2.66663 6.66658 2.66663H9.33325C11.8474 2.66663 13.1045 2.66663 13.8855 3.44767C14.6666 4.22872 14.6666 5.4858 14.6666 7.99996V9.33329C14.6666 11.8475 14.6666 13.1045 13.8855 13.8856C13.1045 14.6666 11.8474 14.6666 9.33325 14.6666H6.66658C4.15243 14.6666 2.89535 14.6666 2.1143 13.8856C1.33325 13.1045 1.33325 11.8475 1.33325 9.33329V7.99996Z" stroke="#F6F8FE"/>
<path d="M4.66675 2.66663V1.66663" stroke="#F6F8FE" stroke-linecap="round"/>
<path d="M11.3333 2.66663V1.66663" stroke="#F6F8FE" stroke-linecap="round"/>
<circle cx="11" cy="11" r="1" stroke="#F6F8FE"/>
<path d="M1.66675 6H14.3334" stroke="#F6F8FE" stroke-linecap="round"/>
</svg>
