<svg width="94" height="54" viewBox="0 0 94 54" fill="none" xmlns="http://www.w3.org/2000/svg">
<path fill-rule="evenodd" clip-rule="evenodd" d="M49.4084 8.51099C48.9763 8.33337 48.4286 8.33337 47.3331 8.33337C46.2376 8.33337 45.6899 8.33337 45.2578 8.51099C44.6817 8.74781 44.224 9.20205 43.9854 9.77378C43.8765 10.0348 43.8338 10.3383 43.8172 10.781C43.7926 11.4317 43.4564 12.0339 42.8883 12.3595C42.3201 12.685 41.6265 12.6728 41.0465 12.3686C40.6518 12.1616 40.3656 12.0464 40.0834 12.0096C39.4652 11.9288 38.84 12.095 38.3453 12.4718C37.9742 12.7543 37.7004 13.2251 37.1526 14.1666C36.6049 15.1082 36.331 15.5789 36.27 16.0391C36.1886 16.6526 36.3561 17.2731 36.7357 17.7641C36.909 17.9882 37.1525 18.1766 37.5304 18.4122C38.086 18.7587 38.4435 19.3489 38.4434 20.0001C38.4434 20.6512 38.0859 21.2413 37.5304 21.5877C37.1524 21.8234 36.9089 22.0118 36.7356 22.2359C36.356 22.7269 36.1885 23.3474 36.2699 23.9609C36.3309 24.4211 36.6048 24.8918 37.1525 25.8334C37.7003 26.7749 37.9741 27.2457 38.3452 27.5282C38.8399 27.905 39.4651 28.0712 40.0833 27.9904C40.3655 27.9536 40.6517 27.8385 41.0463 27.6314C41.6264 27.3272 42.32 27.315 42.8882 27.6406C43.4564 27.9662 43.7926 28.5684 43.8172 29.2191C43.8339 29.6618 43.8765 29.9653 43.9854 30.2263C44.224 30.798 44.6817 31.2523 45.2578 31.4891C45.6899 31.6667 46.2376 31.6667 47.3331 31.6667C48.4286 31.6667 48.9763 31.6667 49.4084 31.4891C49.9845 31.2523 50.4422 30.798 50.6808 30.2263C50.7897 29.9653 50.8323 29.6618 50.849 29.219C50.8735 28.5684 51.2097 27.9662 51.7778 27.6406C52.346 27.315 53.0397 27.3271 53.6198 27.6314C54.0144 27.8384 54.3006 27.9535 54.5828 27.9904C55.201 28.0711 55.8262 27.9049 56.3209 27.5281C56.6919 27.2456 56.9658 26.7748 57.5135 25.8333C58.0613 24.8918 58.3351 24.421 58.3962 23.9608C58.4776 23.3473 58.31 22.7268 57.9305 22.2358C57.7572 22.0117 57.5137 21.8233 57.1357 21.5876C56.5802 21.2412 56.2227 20.6511 56.2228 19.9999C56.2228 19.3489 56.5802 18.7588 57.1357 18.4124C57.5137 18.1767 57.7573 17.9883 57.9306 17.7642C58.3102 17.2732 58.4777 16.6527 58.3963 16.0392C58.3353 15.579 58.0614 15.1082 57.5137 14.1667C56.9659 13.2252 56.692 12.7544 56.321 12.4719C55.8263 12.0951 55.2011 11.9289 54.5829 12.0096C54.3007 12.0465 54.0145 12.1616 53.6199 12.3686C53.0398 12.6729 52.3461 12.6851 51.7779 12.3595C51.2098 12.0339 50.8735 11.4316 50.849 10.781C50.8323 10.3383 50.7897 10.0348 50.6808 9.77378C50.4422 9.20205 49.9845 8.74781 49.4084 8.51099ZM47.3331 23.5C49.2808 23.5 50.8597 21.933 50.8597 20C50.8597 18.067 49.2808 16.5 47.3331 16.5C45.3854 16.5 43.8064 18.067 43.8064 20C43.8064 21.933 45.3854 23.5 47.3331 23.5Z" fill="white"/>
<path d="M29.8635 45.1758C29.3167 45.1758 28.8414 45.0911 28.4378 44.9219C28.0374 44.7526 27.7216 44.5166 27.4905 44.2139C27.2594 43.9111 27.1292 43.5579 27.0999 43.1543L27.095 43.0859H28.3157L28.3206 43.1348C28.3401 43.3333 28.4182 43.5059 28.555 43.6523C28.6949 43.7988 28.8805 43.9144 29.1116 43.999C29.3427 44.0804 29.6064 44.1211 29.9026 44.1211C30.1858 44.1211 30.4365 44.0771 30.6546 43.9893C30.8727 43.9014 31.0436 43.7809 31.1673 43.6279C31.291 43.4717 31.3528 43.2926 31.3528 43.0908V43.0859C31.3528 42.832 31.2535 42.6253 31.055 42.4658C30.8564 42.3031 30.5292 42.1729 30.0735 42.0752L29.3167 41.9189C28.594 41.766 28.0683 41.5218 27.7395 41.1865C27.414 40.848 27.2512 40.4167 27.2512 39.8926V39.8877C27.2512 39.4678 27.3619 39.0999 27.5833 38.7842C27.8079 38.4684 28.1155 38.2227 28.5061 38.0469C28.9 37.8678 29.3509 37.7783 29.8587 37.7783C30.3795 37.7783 30.8303 37.8662 31.2112 38.042C31.5921 38.2145 31.8915 38.4505 32.1096 38.75C32.3277 39.0495 32.4498 39.388 32.4759 39.7656L32.4807 39.8291H31.2796L31.2698 39.7705C31.2405 39.585 31.164 39.4238 31.0403 39.2871C30.9199 39.1471 30.7587 39.0365 30.5569 38.9551C30.3551 38.8737 30.1191 38.833 29.8489 38.833C29.5917 38.833 29.3622 38.8737 29.1604 38.9551C28.9586 39.0332 28.7991 39.1439 28.6819 39.2871C28.568 39.4303 28.511 39.6029 28.511 39.8047V39.8096C28.511 40.057 28.607 40.262 28.7991 40.4248C28.9944 40.5876 29.3118 40.7145 29.7512 40.8057L30.5081 40.9668C31.0029 41.071 31.4049 41.2093 31.7141 41.3818C32.0234 41.5544 32.2496 41.7692 32.3928 42.0264C32.5393 42.2803 32.6126 42.5863 32.6126 42.9443V42.9492C32.6126 43.4049 32.5003 43.7988 32.2757 44.1309C32.0543 44.4629 31.7369 44.7201 31.3235 44.9023C30.9134 45.0846 30.4267 45.1758 29.8635 45.1758ZM36.0868 45.1074C35.5562 45.1074 35.1005 44.9951 34.7196 44.7705C34.342 44.5459 34.0507 44.2269 33.8456 43.8135C33.6405 43.4001 33.538 42.9102 33.538 42.3438V42.3389C33.538 41.779 33.6389 41.2907 33.8407 40.874C34.0458 40.4574 34.3355 40.1351 34.7098 39.9072C35.0842 39.6761 35.5236 39.5605 36.0282 39.5605C36.536 39.5605 36.9722 39.6729 37.3368 39.8975C37.7046 40.1188 37.9878 40.4297 38.1864 40.8301C38.385 41.2305 38.4842 41.6992 38.4842 42.2363V42.6367H34.1483V41.8213H37.8885L37.3124 42.583V42.0996C37.3124 41.7448 37.2587 41.4502 37.1512 41.2158C37.0438 40.9814 36.8941 40.8057 36.702 40.6885C36.5132 40.5713 36.2935 40.5127 36.0428 40.5127C35.7922 40.5127 35.5692 40.5745 35.3739 40.6982C35.1818 40.8187 35.0288 40.9977 34.9149 41.2354C34.8042 41.4697 34.7489 41.7578 34.7489 42.0996V42.5879C34.7489 42.9167 34.8042 43.1982 34.9149 43.4326C35.0256 43.6637 35.1818 43.8428 35.3837 43.9697C35.5887 44.0934 35.8313 44.1553 36.1112 44.1553C36.3293 44.1553 36.5165 44.1243 36.6727 44.0625C36.8322 43.9974 36.9608 43.9209 37.0585 43.833C37.1561 43.7419 37.2245 43.6556 37.2635 43.5742L37.2782 43.54H38.4305L38.4208 43.584C38.3785 43.7565 38.3003 43.9323 38.1864 44.1113C38.0757 44.2871 37.9244 44.4515 37.7323 44.6045C37.5435 44.7542 37.3124 44.8763 37.0389 44.9707C36.7655 45.0618 36.4481 45.1074 36.0868 45.1074ZM41.6997 45.0244C41.0877 45.0244 40.6466 44.9121 40.3764 44.6875C40.1063 44.4629 39.9712 44.0951 39.9712 43.584V40.6055H39.1411V39.6631H39.9712V38.3545H41.2065V39.6631H42.3296V40.6055H41.2065V43.2959C41.2065 43.5596 41.2619 43.7533 41.3725 43.877C41.4865 43.9974 41.6688 44.0576 41.9194 44.0576C42.0073 44.0576 42.0789 44.056 42.1343 44.0527C42.1928 44.0462 42.2579 44.0397 42.3296 44.0332V44.9707C42.2449 44.987 42.1473 45 42.0366 45.0098C41.9292 45.0195 41.8169 45.0244 41.6997 45.0244ZM45.5743 45.0244C44.9623 45.0244 44.5212 44.9121 44.251 44.6875C43.9809 44.4629 43.8458 44.0951 43.8458 43.584V40.6055H43.0157V39.6631H43.8458V38.3545H45.0811V39.6631H46.2042V40.6055H45.0811V43.2959C45.0811 43.5596 45.1365 43.7533 45.2471 43.877C45.3611 43.9974 45.5434 44.0576 45.794 44.0576C45.8819 44.0576 45.9535 44.056 46.0089 44.0527C46.0675 44.0462 46.1326 44.0397 46.2042 44.0332V44.9707C46.1195 44.987 46.0219 45 45.9112 45.0098C45.8038 45.0195 45.6915 45.0244 45.5743 45.0244ZM47.3346 45V39.6631H48.5456V45H47.3346ZM47.945 38.7695C47.7464 38.7695 47.5755 38.6995 47.4323 38.5596C47.2891 38.4196 47.2175 38.252 47.2175 38.0566C47.2175 37.8548 47.2891 37.6855 47.4323 37.5488C47.5755 37.4089 47.7464 37.3389 47.945 37.3389C48.1436 37.3389 48.3128 37.4089 48.4528 37.5488C48.596 37.6855 48.6676 37.8548 48.6676 38.0566C48.6676 38.252 48.596 38.4196 48.4528 38.5596C48.3128 38.6995 48.1436 38.7695 47.945 38.7695ZM49.9446 45V39.6631H51.1604V40.4834H51.2434C51.3704 40.1937 51.5624 39.9674 51.8196 39.8047C52.0768 39.6419 52.3974 39.5605 52.7815 39.5605C53.3772 39.5605 53.8329 39.7331 54.1487 40.0781C54.4645 40.4232 54.6223 40.9131 54.6223 41.5479V45H53.4065V41.8311C53.4065 41.4144 53.3186 41.1019 53.1428 40.8936C52.9703 40.6852 52.7001 40.5811 52.3323 40.5811C52.0914 40.5811 51.8831 40.6348 51.7073 40.7422C51.5315 40.8496 51.3964 41.001 51.302 41.1963C51.2076 41.3916 51.1604 41.6227 51.1604 41.8896V45H49.9446ZM58.2528 46.875C57.7841 46.875 57.3788 46.8132 57.037 46.6895C56.6984 46.5658 56.4315 46.39 56.2362 46.1621C56.0409 45.9375 55.9221 45.6755 55.8798 45.376L55.8846 45.3613H57.0956L57.1053 45.376C57.1444 45.5452 57.2632 45.6836 57.4618 45.791C57.6636 45.9017 57.9338 45.957 58.2723 45.957C58.689 45.957 59.0113 45.8643 59.2391 45.6787C59.4703 45.4932 59.5858 45.2295 59.5858 44.8877V43.8623H59.5028C59.4019 44.0544 59.2701 44.2171 59.1073 44.3506C58.9478 44.484 58.7639 44.585 58.5555 44.6533C58.3505 44.7184 58.1242 44.751 57.8768 44.751C57.4276 44.751 57.0386 44.6436 56.7098 44.4287C56.3811 44.2106 56.1272 43.9095 55.9481 43.5254C55.7723 43.1413 55.6844 42.6969 55.6844 42.1924V42.1826C55.6844 41.6683 55.774 41.2158 55.953 40.8252C56.132 40.4346 56.3859 40.1286 56.7147 39.9072C57.0467 39.6859 57.4423 39.5752 57.9012 39.5752C58.1486 39.5752 58.3749 39.6143 58.58 39.6924C58.7883 39.7705 58.9706 39.8812 59.1268 40.0244C59.2863 40.1676 59.4165 40.3402 59.5175 40.542H59.5809V39.6631H60.7967V44.8682C60.7967 45.2783 60.6926 45.6331 60.4842 45.9326C60.2792 46.2354 59.9862 46.4681 59.6053 46.6309C59.2245 46.7936 58.7736 46.875 58.2528 46.875ZM58.2528 43.7842C58.5328 43.7842 58.7736 43.7174 58.9755 43.584C59.1773 43.4473 59.3319 43.2601 59.4393 43.0225C59.55 42.7848 59.6053 42.5081 59.6053 42.1924V42.1826C59.6053 41.8669 59.55 41.5902 59.4393 41.3525C59.3319 41.1117 59.1773 40.9245 58.9755 40.791C58.7736 40.6543 58.5328 40.5859 58.2528 40.5859C57.9696 40.5859 57.7287 40.6543 57.5301 40.791C57.3348 40.9245 57.1851 41.1117 57.0809 41.3525C56.98 41.5902 56.9296 41.8669 56.9296 42.1826V42.1924C56.9296 42.5049 56.98 42.7816 57.0809 43.0225C57.1851 43.2601 57.3348 43.4473 57.5301 43.584C57.7287 43.7174 57.9696 43.7842 58.2528 43.7842ZM64.2026 45.1074C63.7501 45.1074 63.3595 45.0439 63.0307 44.917C62.7052 44.7868 62.448 44.6077 62.2592 44.3799C62.0704 44.1488 61.9581 43.8818 61.9223 43.5791V43.5693H63.1284L63.1333 43.5791C63.1984 43.7646 63.3204 43.916 63.4995 44.0332C63.6785 44.1504 63.9194 44.209 64.2221 44.209C64.424 44.209 64.6014 44.1813 64.7544 44.126C64.9074 44.0674 65.0278 43.9876 65.1157 43.8867C65.2036 43.7858 65.2475 43.6686 65.2475 43.5352V43.5254C65.2475 43.3691 65.1841 43.2389 65.0571 43.1348C64.9301 43.0273 64.7202 42.9411 64.4272 42.876L63.563 42.6807C63.2244 42.6058 62.9445 42.5016 62.7231 42.3682C62.5018 42.2347 62.3357 42.0703 62.2251 41.875C62.1176 41.6797 62.0639 41.4518 62.0639 41.1914V41.1865C62.0639 40.8643 62.1535 40.5811 62.3325 40.3369C62.5148 40.0928 62.7671 39.9023 63.0893 39.7656C63.4116 39.6289 63.7827 39.5605 64.2026 39.5605C64.6355 39.5605 65.0083 39.6257 65.3208 39.7559C65.6333 39.8861 65.8774 40.0651 66.0532 40.293C66.229 40.5208 66.3299 40.7796 66.3559 41.0693V41.0791H65.2133L65.2085 41.0645C65.1629 40.8952 65.0538 40.752 64.8813 40.6348C64.712 40.5143 64.4842 40.4541 64.1977 40.4541C64.0187 40.4541 63.8576 40.4818 63.7143 40.5371C63.5744 40.5924 63.4637 40.6706 63.3823 40.7715C63.3042 40.8691 63.2651 40.9847 63.2651 41.1182V41.123C63.2651 41.2272 63.2911 41.3184 63.3432 41.3965C63.3986 41.4746 63.4848 41.543 63.602 41.6016C63.7192 41.6602 63.8738 41.7122 64.0659 41.7578L64.9301 41.9482C65.4542 42.0654 65.8416 42.2396 66.0923 42.4707C66.3429 42.7018 66.4682 43.0127 66.4682 43.4033V43.4131C66.4682 43.7516 66.3706 44.0479 66.1753 44.3018C65.9799 44.5557 65.7114 44.7542 65.3696 44.8975C65.0278 45.0374 64.6388 45.1074 64.2026 45.1074Z" fill="white"/>
</svg>
