<svg width="30" height="18" viewBox="0 0 30 18" fill="none" xmlns="http://www.w3.org/2000/svg">
<g clip-path="url(#clip0_19100_11499)">
<path fill-rule="evenodd" clip-rule="evenodd" d="M30 0.0102798L29.9487 6.76413L29.8974 12.7984C29.8974 13.0348 29.8769 13.2816 29.8256 13.518C29.7846 13.7544 29.7128 13.9806 29.6205 14.2067C29.0564 15.6768 28.1744 16.7356 27.0051 17.3524C25.8872 17.9486 25.4769 18 21.3026 18C17.1282 18 18.8821 18 17.8256 18C16.7692 18 17.2205 17.7224 17.2205 17.3935C17.2205 17.0543 17.4872 16.787 17.8256 16.787C18.9231 16.787 21.0667 16.787 21.5077 16.7767L24.8308 16.7356C25.0769 16.7356 25.3333 16.7047 25.5692 16.6431C25.8154 16.5917 26.0513 16.4991 26.2769 16.3963C27.159 15.9852 27.7949 15.317 28.2462 14.3712C28.8923 13.0246 28.9231 12.6853 28.9231 6.54826V1.03826H24.7282C22.3077 1.03826 20.3077 1.07938 19.9897 1.14106C17.6103 1.59338 15.8154 3.78298 15.6205 6.4763L15.559 7.41176H14.359V6.66134C14.359 5.0988 13.7846 3.73158 12.6769 2.63164C12.2564 2.22045 11.7026 1.78869 11.3846 1.63449C10.2359 1.0691 9.96923 1.03826 5.31282 1.03826H1.02564V4.8418H0V0L5.3641 0.0308395L9.94872 0.0513992C10.2051 0.0513992 10.4615 0.0822387 10.7077 0.123358C10.9538 0.174757 11.2 0.246716 11.4359 0.339235C11.8256 0.493432 12.359 0.760708 12.6256 0.925186C13.2615 1.33638 14.2564 2.3952 14.6256 3.05311C14.7897 3.35123 14.9538 3.59794 14.9846 3.59794C15.0154 3.59794 15.2205 3.31011 15.4359 2.95031C15.9897 2.06625 16.9333 1.15134 17.8051 0.699029C19.0974 0.0308395 19.2513 0.0102798 24.9231 0.0102798H30Z" fill="#C7231C"/>
<path fill-rule="evenodd" clip-rule="evenodd" d="M4.69545 3.47464C4.7775 3.71108 6.90058 7.07259 9.40314 10.9584C13.6083 17.4655 13.998 17.9898 14.716 17.9898C15.4339 17.9898 15.6698 17.7225 16.5006 16.5814C18.039 14.4741 24.9313 4.34843 25.3006 3.65968C25.5125 3.26905 24.8732 3.07373 23.3826 3.07373H21.1775L18.1211 7.76134C16.4493 10.3416 14.9621 12.4798 14.8288 12.4798C14.6954 12.4798 13.3108 10.4033 11.7724 7.84358L8.98263 3.20737L6.74673 3.12513C4.80827 3.07373 4.54161 3.09429 4.69545 3.47464Z" fill="black"/>
</g>
<defs>
<clipPath id="clip0_19100_11499">
<rect width="30" height="18" fill="white"/>
</clipPath>
</defs>
</svg>
