<svg width="16" height="16" viewBox="0 0 16 16" fill="none" xmlns="http://www.w3.org/2000/svg">
<path fill-rule="evenodd" clip-rule="evenodd" d="M3.71639 3.12749C3.16094 3.58847 3.01464 4.36876 2.72203 5.92935L2.22203 8.59602C1.81056 10.7905 1.60483 11.8877 2.20465 12.6104C2.80446 13.3332 3.92081 13.3332 6.15352 13.3332H9.84744C12.0801 13.3332 13.1965 13.3332 13.7963 12.6104C14.3961 11.8877 14.1904 10.7905 13.7789 8.59601L13.2789 5.92935C12.9863 4.36876 12.84 3.58847 12.2846 3.12749C11.7291 2.6665 10.9352 2.6665 9.34744 2.6665H6.65352C5.06573 2.6665 4.27184 2.6665 3.71639 3.12749ZM6.58597 5.16655C6.79212 5.74982 7.34841 6.1665 8.00074 6.1665C8.65307 6.1665 9.20936 5.74982 9.41552 5.16655C9.50754 4.90619 9.7932 4.76973 10.0536 4.86175C10.3139 4.95377 10.4504 5.23944 10.3584 5.49979C10.0154 6.47011 9.09004 7.1665 8.00074 7.1665C6.91145 7.1665 5.98608 6.47011 5.64313 5.49979C5.5511 5.23944 5.68756 4.95377 5.94792 4.86175C6.20828 4.76973 6.49394 4.90619 6.58597 5.16655Z" fill="#65A30D"/>
</svg>
